<svg width="497" height="137" viewBox="0 0 497 137" fill="none" xmlns="http://www.w3.org/2000/svg">
<path id="Vector" fill-rule="evenodd" clip-rule="evenodd" d="M59.6032 1.943C53.2946 4.29368 47.5734 9.38964 37.8297 21.3365C31.3065 29.3353 26.1964 34.7188 20.9983 39.0699C5.6806 51.8916 1.04253 58.7242 0.983341 68.5582C0.922674 78.559 5.1272 84.9672 20.4752 98.2676C28.3131 105.06 32.838 109.752 38.9868 117.465C50.7473 132.215 56.3465 136.187 66.122 136.718C76.3621 137.274 82.6145 133.05 95.7527 116.703C101.894 109.061 106.969 103.67 112.26 99.1669C125.946 87.5182 130.06 82.1882 132.345 73.1457C133.322 69.2771 133.321 68.2845 132.342 64.4059C130.22 56.008 126.506 51.0298 114.795 40.8845C109.732 36.499 103.201 29.7727 98.5359 24.1384C88.503 12.024 81.7955 5.57532 76.7358 3.18104C71.5532 0.728652 64.2746 0.203307 59.6032 1.943ZM62.3577 5.5929C56.4648 7.29665 51.2342 11.7633 40.96 23.8662C35.6094 30.1696 28.2095 37.9359 24.517 41.1247C9.67426 53.9402 4.85494 60.639 4.85494 68.4535C4.85494 77.0586 9.06389 83.7811 20.1489 92.8787C29.9245 100.901 32.7914 103.773 39.9871 112.752C52.3054 128.123 58.2294 132.518 66.6317 132.518C75.2087 132.518 80.7398 128.664 92.0712 114.794C99.9971 105.093 105.668 99.3144 114.528 91.9121C125.044 83.1273 129.922 74.4854 128.786 66.6549C127.686 59.0729 123.306 53.1809 111.147 42.9293C104.212 37.0809 99.7352 32.5417 95.1874 26.7475C80.1708 7.614 72.4891 2.66411 62.3577 5.5929ZM441.362 27.8594C426.344 31.3587 413.22 43.4815 408.707 58.0207C406.54 65.0009 406.027 78.0344 407.639 85.1361C411.226 100.936 424.293 114.74 439.551 118.848C445.128 120.349 458.146 120.367 463.557 118.881C478.266 114.84 490.375 102.721 495.062 87.3484C496.91 81.2928 497.251 69.953 495.79 63.1679C492.332 47.1054 480.613 33.7453 465.777 28.9529C459.371 26.8837 447.778 26.3644 441.362 27.8594ZM167.201 30.7844C166.996 31.3357 166.924 35.7236 167.039 40.5343L167.25 49.2817L184.822 49.4866C194.486 49.5998 202.393 49.8392 202.393 50.0204C202.393 50.2009 194.07 62.5668 183.897 77.4999L165.401 104.651V112.333C165.401 119.117 165.552 120.023 166.695 120.078C167.898 120.136 227.819 120.103 230.692 120.043C231.854 120.019 231.986 119.041 231.986 110.458C231.986 105.2 231.903 100.828 231.801 100.741C231.7 100.654 223.267 100.396 213.063 100.167L194.508 99.7518L212.867 72.605L231.227 45.4582L231.237 37.62L231.247 29.7819H199.41C173.832 29.7819 167.5 29.9792 167.201 30.7844ZM246.783 30.9672C246.783 31.6187 253.442 43.6711 261.58 57.75L276.377 83.3483V101.255C276.377 114.059 276.623 119.318 277.239 119.712C278.528 120.535 295.782 120.688 297.277 119.889C298.455 119.26 298.572 117.558 298.572 100.998V82.7985L308.62 65.2754C325.787 35.3374 327.426 32.3536 327.426 31.049C327.426 29.9295 326.222 29.7819 317.104 29.7819H306.781L297.313 46.2C292.105 55.2295 287.675 62.628 287.468 62.641C287.26 62.6532 282.765 55.28 277.48 46.255L267.869 29.8453L257.326 29.814C248.284 29.7865 246.783 29.9509 246.783 30.9672ZM342.716 30.2919C342.445 30.5718 342.223 50.8318 342.223 75.3136V119.825L344.621 120.321C345.939 120.594 358.064 120.791 371.565 120.76C391.144 120.716 396.279 120.497 396.936 119.678C397.467 119.017 397.685 115.431 397.551 109.584L397.341 100.517L380.695 100.134L364.048 99.7518L363.856 64.7669L363.664 29.7819H353.437C347.812 29.7819 342.987 30.0113 342.716 30.2919ZM445.065 48.5988C437.401 51.4779 431.309 58.2501 429.473 65.9307C428.161 71.4213 428.906 81.4365 430.928 85.4894C438.629 100.919 456.745 104.299 467.76 92.361C469.054 90.9586 471.052 87.9181 472.199 85.6049C474.076 81.8189 474.285 80.6351 474.285 73.7521C474.285 67.0785 474.035 65.5553 472.326 61.7861C469.926 56.4951 465.279 51.5559 460.753 49.4874C456.176 47.3944 449.306 47.0052 445.065 48.5988Z" fill="#2A2C2B"/>
</svg>
